<svg id="OBJECTS" xmlns="http://www.w3.org/2000/svg" xmlns:xlink="http://www.w3.org/1999/xlink" viewBox="0 0 93.3 107.73"><defs><style>.cls-1{fill:url(#linear-gradient);}.cls-2{fill:url(#linear-gradient-2);}.cls-3{fill:url(#linear-gradient-3);}.cls-4{fill:url(#linear-gradient-4);}.cls-5{fill:url(#linear-gradient-5);}.cls-6{fill:url(#linear-gradient-6);}</style><linearGradient id="linear-gradient" x1="83.98" y1="77.67" x2="55.98" y2="57" gradientUnits="userSpaceOnUse"><stop offset="0" stop-color="#0897f5"/><stop offset="0.23" stop-color="#20acf7"/><stop offset="0.49" stop-color="#35bef9"/><stop offset="0.75" stop-color="#42c9fa"/><stop offset="1" stop-color="#46cdfa"/></linearGradient><linearGradient id="linear-gradient-2" x1="24.22" y1="66.46" x2="-0.45" y2="90.46" gradientUnits="userSpaceOnUse"><stop offset="0" stop-color="#2b6490"/><stop offset="0.17" stop-color="#225980"/><stop offset="0.45" stop-color="#164b6b"/><stop offset="0.74" stop-color="#0f435e"/><stop offset="1" stop-color="#0d405a"/></linearGradient><linearGradient id="linear-gradient-3" x1="46.65" y1="23.07" x2="46.65" y2="2.68" gradientUnits="userSpaceOnUse"><stop offset="0" stop-color="#ffbf16"/><stop offset="1" stop-color="#f09f10"/></linearGradient><linearGradient id="linear-gradient-4" x1="48.69" y1="58.11" x2="33.44" y2="46.11" gradientUnits="userSpaceOnUse"><stop offset="0" stop-color="#0897f5"/><stop offset="0.23" stop-color="#0e9cf5"/><stop offset="0.53" stop-color="#1eabf7"/><stop offset="0.87" stop-color="#3ac2f9"/><stop offset="1" stop-color="#46cdfa"/></linearGradient><linearGradient id="linear-gradient-5" x1="73.96" y1="36.65" x2="46.21" y2="55.4" gradientUnits="userSpaceOnUse"><stop offset="0" stop-color="#2b6490"/><stop offset="0.6" stop-color="#184d6d"/><stop offset="1" stop-color="#0d405a"/></linearGradient><linearGradient id="linear-gradient-6" x1="46.65" y1="46.91" x2="46.65" y2="86.91" gradientUnits="userSpaceOnUse"><stop offset="0" stop-color="#ffbf16"/><stop offset="0.41" stop-color="#febc15"/><stop offset="0.7" stop-color="#f9b314"/><stop offset="0.94" stop-color="#f2a411"/><stop offset="1" stop-color="#f09f10"/></linearGradient></defs><title>9</title><polygon class="cls-1" points="93.3 26.93 93.3 80.8 46.65 107.73 46.65 90.75 78.58 72.31 78.58 35.43 93.3 26.93"/><polygon class="cls-2" points="46.65 90.75 46.65 107.73 0 80.8 0 26.93 14.71 35.43 14.71 72.31 46.65 90.75"/><polygon class="cls-3" points="93.3 26.93 78.58 35.43 46.65 16.99 14.72 35.43 14.71 35.43 0 26.93 46.65 0 93.3 26.93"/><polygon class="cls-4" points="46.65 53.87 46.65 24.78 21.45 39.32 21.45 68.41 46.65 53.87"/><polygon class="cls-5" points="71.84 39.32 46.65 24.78 46.65 53.87 71.84 68.41 71.84 39.32"/><polygon class="cls-6" points="46.65 82.96 71.84 68.41 46.65 53.87 21.45 68.41 46.65 82.96"/></svg>